<?xml version="1.0" ?>
<!-- Uploaded to: SVG Repo, www.svgrepo.com, Generator: SVG Repo Mixer Tools -->
<svg width="800px" height="800px" viewBox="0 0 32 32" xmlns="http://www.w3.org/2000/svg">
<defs>
<style>.cls-1{fill:#04009a;}.cls-2{fill:#77acf1;}</style>
</defs>
<g data-name="26. File" id="_26._File">
<path class="cls-1" d="M28.71,10.29,19.29.88A3,3,0,0,0,17.17,0H6A3,3,0,0,0,3,3V25a3,3,0,0,0,3,3H7v1a3,3,0,0,0,3,3H26a3,3,0,0,0,3-3V11A1,1,0,0,0,28.71,10.29ZM23,7.41,25.59,10H23ZM6,26a1,1,0,0,1-1-1V3A1,1,0,0,1,6,2H17.17a1,1,0,0,1,.71.29L19.59,4H10A3,3,0,0,0,7,7V26Zm20,4H10a1,1,0,0,1-1-1V7a1,1,0,0,1,1-1H21v5a1,1,0,0,0,1,1h5V29A1,1,0,0,1,26,30Z"/>
<path class="cls-2" d="M20,27H16a1,1,0,0,1-1-1V24H13a1,1,0,0,1-1-1V19a1,1,0,0,1,1-1h2V16a1,1,0,0,1,1-1h4a1,1,0,0,1,1,1v2h2a1,1,0,0,1,1,1v4a1,1,0,0,1-1,1H21v2A1,1,0,0,1,20,27Zm-3-2h2V23a1,1,0,0,1,1-1h2V20H20a1,1,0,0,1-1-1V17H17v2a1,1,0,0,1-1,1H14v2h2a1,1,0,0,1,1,1Z"/>
</g>
</svg>