<svg version="1.1" id="Ebene_1" xmlns="http://www.w3.org/2000/svg" x="0" y="0" viewBox="0 0 159.4 67.4" xml:space="preserve">
  <style>
    .st0{fill:#747d84}.st1{fill:none}.st2{fill:#cf6728}
  </style>
    <circle class="st0" cx="37.7" cy="15.1" r=".7"/>
    <circle class="st0" cx="37.7" cy="17.5" r=".5"/>
    <path class="st0" d="M37.7 18.1c-.2 0-.4.2-.4.4s.2.4.4.4.4-.2.4-.4-.2-.4-.4-.4zM36.6 13.6c.3.1.5-.1.6-.3s-.1-.5-.3-.6c-.3-.1-.5.1-.6.3s.1.5.3.6zM36.2 15.1c.2 0 .4-.2.4-.4s-.2-.4-.4-.4-.4.2-.4.4.1.4.4.4zM35.8 16.4c.3 0 .6-.3.6-.6s-.3-.6-.6-.6-.6.3-.6.6.2.6.6.6zM36 16.7c-.2 0-.4.2-.4.4s.2.4.4.4.4-.2.4-.4-.2-.4-.4-.4zM36.3 18.1c0-.3-.2-.6-.6-.6-.3 0-.6.2-.6.6 0 .3.2.6.6.6.3 0 .6-.3.6-.6z"/>
    <circle class="st0" cx="35.2" cy="16.9" r=".3"/>
    <path class="st0" d="M36.3 14.2c.1 0 .2-.1.2-.2s-.1-.2-.2-.2-.2.1-.2.2c-.1.1 0 .2.2.2zM38 16c-.2.1-.2.3-.1.5s.3.2.5.1.2-.3.1-.5-.3-.3-.5-.1zM37.6 16.8c.2-.1.2-.3.1-.5s-.3-.2-.5-.1-.2.3-.1.5.4.2.5.1zM36.1 19.2c.1 0 .2-.1.2-.2s-.1-.2-.2-.2-.2.1-.2.2.1.2.2.2zM37.1 14.2c.1.2.3.2.5.1s.2-.3.1-.5-.3-.2-.5-.1-.3.3-.1.5zM34.8 52c1.1.5 1-.6 1-.6s-.2-2.1-1.5-2.8c-1.2-.7-4-.7-4-.7h-1.9s-.7-.1-.7.5c0 .9-.1 2.4.2 3.7 0 0 .2.4.4-.2.2-.6.5-1.7.5-1.7s.1-.9.9-.5c.8.3 4.2 2 4.2 2s-.2-.2.9.3zM28.1 44.8c-.2 0-.3.1-.3.3s.1.3.3.3.3-.1.3-.3-.2-.3-.3-.3z"/>
    <path class="st0" d="M28.5 44.3c-.2 0-.3.1-.3.3 0 .2.1.3.3.3s.3-.1.3-.3c0-.2-.1-.3-.3-.3zM28.4 45.4c-.2 0-.3.1-.3.3s.1.3.3.3c.2 0 .3-.1.3-.3s-.1-.3-.3-.3zM28.9 44.9c-.2 0-.3.1-.3.3s.1.3.3.3c.2 0 .3-.1.3-.3s-.1-.3-.3-.3z"/>
    <circle class="st0" cx="28.2" cy="44" r=".3"/>
    <path class="st0" d="M28.9 43.5c0-.2-.1-.3-.3-.3-.2 0-.3.1-.3.3 0 .2.1.3.3.3.2 0 .3-.1.3-.3zM27.2 43.8c0 .2.1.3.3.3.2 0 .3-.1.3-.3s-.1-.3-.3-.3c-.2 0-.3.1-.3.3zM28 42.9c-.2 0-.3.1-.3.3s.1.3.3.3c.2 0 .3-.1.3-.3s-.2-.3-.3-.3zM29.5 44.4c-.2 0-.3.1-.3.3 0 .2.1.3.3.3.2 0 .3-.1.3-.3 0-.1-.1-.3-.3-.3zM30.1 44c-.2 0-.3.1-.3.3 0 .2.1.3.3.3.2 0 .3-.1.3-.3 0-.2-.2-.3-.3-.3zM27.3 42.8c-.1 0-.3.1-.3.2s.1.3.2.3.3-.1.3-.2c.1-.2 0-.3-.2-.3z"/>
    <circle class="st0" cx="27.7" cy="44.4" r=".2"/>
    <path class="st0" d="M28.9 46c-.2 0-.3.1-.3.3 0 .2.1.3.3.3.2 0 .3-.1.3-.3 0-.2-.1-.3-.3-.3zM29.4 45.4c-.2 0-.3.1-.3.3 0 .2.1.3.3.3.2 0 .3-.1.3-.3 0-.2-.1-.3-.3-.3zM30 44.9c-.2 0-.3.1-.3.3 0 .2.1.3.3.3.2 0 .3-.1.3-.3 0-.1-.1-.2-.3-.3zM30.6 44.5c-.2 0-.3.1-.3.3 0 .2.1.3.3.3.2 0 .3-.1.3-.3-.1-.1-.2-.3-.3-.3z"/>
    <path class="st0" d="M29.4 46.4c-.2 0-.3.1-.3.3 0 .2.1.3.3.3s.3-.1.3-.3c0-.1-.1-.3-.3-.3zM30 45.9c-.2 0-.3.1-.3.3 0 .2.1.3.3.3.2 0 .3-.1.3-.3-.1-.2-.2-.3-.3-.3zM30.5 45.4c-.2 0-.3.1-.3.3 0 .2.1.3.3.3.2 0 .3-.1.3-.3 0-.1-.1-.2-.3-.3zM31.1 45c-.2 0-.3.1-.3.3 0 .2.1.3.3.3.2 0 .3-.1.3-.3 0-.1-.1-.3-.3-.3zM29.9 47.5c.2 0 .3-.1.3-.3 0-.2-.1-.3-.3-.3-.2 0-.3.1-.3.3 0 .2.1.3.3.3z"/>
    <path class="st0" d="M30.4 47c.2 0 .3-.1.3-.3 0-.2-.1-.3-.3-.3-.2 0-.3.1-.3.3.1.1.2.3.3.3zM31.1 46c-.2 0-.3.1-.3.2 0 .2.1.3.2.3.2 0 .3-.1.3-.2s-.1-.3-.2-.3zM31.7 45.6c-.2 0-.3.1-.3.2 0 .2.1.3.2.3.2 0 .3-.1.3-.2s-.1-.3-.2-.3zM30.8 47.6c.2 0 .3-.1.3-.3 0-.2-.1-.3-.3-.3-.2 0-.3.1-.3.3 0 .2.1.3.3.3zM31.4 46.5c-.2 0-.3.1-.3.3 0 .2.1.3.3.3.2 0 .3-.1.3-.3 0-.1-.1-.2-.3-.3zM32.1 46.2c-.2 0-.3.1-.3.2 0 .2.1.3.2.3.2 0 .3-.1.3-.2s-.1-.3-.2-.3zM32.6 46.7c-.1 0-.3.1-.3.2s.1.3.2.3.3-.1.3-.2 0-.3-.2-.3zM31.4 47.4c-.1 0-.2.1-.2.2s.1.2.2.2.2-.1.2-.2c0 0-.1-.2-.2-.2zM32 47.6c.2 0 .3-.1.3-.3 0-.2-.1-.3-.3-.3-.2 0-.3.1-.3.3 0 .1.1.2.3.3zM32.9 47.3c-.2 0-.3.1-.3.2 0 .2.1.3.2.3.2 0 .3-.1.3-.2.1-.1 0-.3-.2-.3zM30.3 47.9c.1 0 .2-.1.2-.2s-.1-.2-.2-.2-.2.1-.2.2.1.2.2.2zM32.1 47.8c0 .1.1.2.2.2s.2-.1.2-.2-.1-.2-.2-.2-.2.1-.2.2zM44.1 44.3c.8-.3.9.5.9.5s.3 1 .5 1.7c.2.6.4.2.4.2.3-1.3.2-2.8.2-3.7 0-.6-.7-.5-.7-.5h-1.9s-2.8 0-4 .7C38.3 44 38 46 38 46s-.2 1.1 1 .6c1.1-.5.8-.3.8-.3s3.5-1.7 4.3-2zM46.1 39.7c0-.2-.1-.3-.3-.3s-.3.1-.3.3c0 .2.1.3.3.3s.3-.1.3-.3zM45.6 39.2c0-.2-.1-.3-.3-.3s-.3.2-.3.3c0 .2.1.3.3.3s.3-.1.3-.3zM45.7 40.4c0-.2-.1-.3-.3-.3-.2 0-.3.1-.3.3 0 .2.1.3.3.3.2 0 .3-.2.3-.3zM44.6 39.8c0 .2.1.3.3.3.2 0 .3-.1.3-.3 0-.2-.1-.3-.3-.3-.2 0-.3.2-.3.3zM45.6 38.3c-.2 0-.3.1-.3.3s.1.3.3.3c.2 0 .3-.1.3-.3s-.1-.3-.3-.3zM45.1 37.8c-.2 0-.3.2-.3.3 0 .2.2.3.3.3.2 0 .3-.2.3-.3 0-.2-.1-.3-.3-.3zM46.6 38.4c0-.2-.1-.3-.3-.3-.2 0-.3.1-.3.3 0 .2.1.3.3.3.2 0 .3-.1.3-.3zM45.9 38.1c.2 0 .3-.1.3-.3 0-.2-.1-.3-.3-.3-.2 0-.3.1-.3.3 0 .2.1.3.3.3z"/>
    <circle transform="rotate(-16.158 44.3427 39.369)" class="st0" cx="44.4" cy="39.4" r=".3"/>
    <path class="st0" d="M43.8 38.6c-.2 0-.3.2-.3.3 0 .2.2.3.3.3.2 0 .3-.2.3-.3 0-.2-.2-.3-.3-.3zM46.6 38c.1 0 .2-.1.2-.3 0-.1-.1-.2-.3-.2-.1 0-.2.1-.2.3 0 .1.1.2.3.2z"/>
    <circle class="st0" cx="46.1" cy="39.1" r=".2"/>
    <path class="st0" d="M45.2 40.9c0-.2-.1-.3-.3-.3-.2 0-.3.1-.3.3s.1.3.3.3c.2 0 .3-.1.3-.3zM44.1 40.3c0 .2.1.3.3.3s.3-.1.3-.3c0-.2-.1-.3-.3-.3s-.3.2-.3.3zM43.8 39.6c-.2 0-.3.2-.3.3 0 .2.2.3.3.3.2 0 .3-.2.3-.3 0-.2-.1-.3-.3-.3zM43.3 39.2c-.2 0-.3.2-.3.3 0 .2.2.3.3.3.2 0 .3-.2.3-.3 0-.2-.2-.4-.3-.3zM44.7 41.4c0-.2-.1-.3-.3-.3-.2 0-.3.1-.3.3 0 .2.1.3.3.3.2 0 .3-.2.3-.3zM43.9 41.1c.2 0 .3-.1.3-.3 0-.2-.1-.3-.3-.3-.2 0-.3.1-.3.3 0 .2.1.3.3.3zM43.3 40.1c-.2 0-.3.2-.3.3 0 .2.2.3.3.3.2 0 .3-.2.3-.3 0-.2-.1-.3-.3-.3zM42.7 39.7c-.2 0-.3.2-.3.3 0 .2.2.3.3.3s.3-.2.3-.3c0-.2-.1-.3-.3-.3zM43.9 42.2c.2 0 .3-.2.3-.3 0-.2-.2-.3-.3-.3-.2 0-.3.2-.3.3 0 .2.2.3.3.3zM43.4 41.1c-.2 0-.3.2-.3.3 0 .2.2.3.3.3.2 0 .3-.2.3-.3 0-.2-.2-.4-.3-.3zM43.1 40.9c0-.2-.2-.3-.3-.2-.2 0-.3.2-.2.3 0 .2.2.3.3.2.1 0 .2-.2.2-.3zM42.2 40.2c-.2 0-.3.2-.2.3 0 .2.2.3.3.2.2 0 .3-.2.2-.3 0-.1-.2-.2-.3-.2zM43.1 42.3c.2 0 .3-.2.3-.3 0-.2-.2-.3-.3-.3-.2 0-.3.2-.3.3 0 .2.1.3.3.3zM42.4 41.2c-.2 0-.3.2-.3.3 0 .2.2.3.3.3.2 0 .3-.2.3-.3s-.2-.3-.3-.3zM41.5 41.2c0 .2.2.3.3.2.2 0 .3-.2.2-.3 0-.2-.2-.3-.3-.2-.1 0-.2.1-.2.3zM41.2 41.4c-.1 0-.2.2-.2.3 0 .1.2.2.3.2.1 0 .2-.2.2-.3 0-.2-.2-.2-.3-.2zM42.4 42.1c-.1 0-.2.1-.2.2s.1.2.2.2.2-.1.2-.2-.1-.2-.2-.2zM41.8 41.6c-.2 0-.3.2-.3.3 0 .2.2.3.3.3.2 0 .3-.2.3-.3 0-.2-.1-.3-.3-.3zM40.7 42.3c0 .2.2.3.3.2.2 0 .3-.2.2-.3 0-.2-.2-.3-.3-.2-.2 0-.3.2-.2.3z"/>
    <path class="st0" d="M43.5 42.5c.1 0 .2-.1.2-.2s-.1-.2-.2-.2-.2.1-.2.2.1.2.2.2zM41.4 42.5c0 .1.1.2.2.2s.2-.1.2-.2-.1-.2-.2-.2-.2.1-.2.2zM44.6 38.8c0 .1.1.2.3.2.1 0 .2-.1.2-.3 0-.1-.1-.2-.3-.2-.2 0-.3.1-.2.3z"/>
    <path class="st0" d="M44.4 38.1c-.1 0-.2.1-.2.3 0 .1.1.2.3.2.1 0 .2-.1.2-.3-.1-.1-.2-.2-.3-.2z"/>
    <path class="st0" d="M37.8 64.8v-3c.7-.8 2.7-2.9 3.1-3.5.6-.7 1.4-.1 1.4-.1s3.4 2.9 4.1 3.4c.7.5.6 0 .6 0-.7-2.3-4.5-5.4-5.2-6.2-.7-.8-1.3-.2-1.3-.2l-2.9 2.6-.1-5.5c.7-.6 3.1-2.7 3.7-3.2.7-.7 1.6-.1 1.6-.1s3.9 2.6 4.6 3c.8.4.7 0 .7 0-.7-1.9-5.1-4.8-5.8-5.5-.7-.7-1.4-.2-1.4-.2l-3.4 2.4-.1-6c.4-1 2.1-4.7 2.6-5.5.2-.2.3-.5.4-.6.3-.4.8-.6 1.4-.5 1 .2 2.7.6 3.1.9.7.5.5 0 .5 0-.9-1.6-2.6-2.1-3.7-2.8-1-.6-1.5 0-1.5 0l-2.9 3.5-.1-3.8c.4-.6 1.8-2.6 2.2-3.1.5-.6 1.2-.1 1.2-.1s3.2 2.6 3.8 3c.6.4.5 0 .5 0-.6-1.8-3.6-4.5-4.2-5.2-.5-.7-1-.2-1-.2l-2.4 2.2-.2-11-.4-5.1-.3 5.1-.1 5.7-2.5-2.3s-.5-.5-1 .2-4.2 3.5-4.2 5.2c0 0-.1.4.5 0s3.8-3 3.8-3 .7-.6 1.2.1c.4.5 1.9 2.7 2.3 3.2l-.1 5.1-2.9-2.7s-.6-.6-1.2.2c-.7.8-4.9 4.1-5 6.4 0 0-.1.5.6 0s4.5-3.7 4.5-3.7.8-.7 1.4.1c.5.6 2.1 3 2.7 3.8v1.5l-.1 3.5-3.1-2.8s-.6-.6-1.3.2c-.7.9-2.5 2.7-3 4.2 0 0-.1.5.6 0s2.5-1.9 2.5-1.9.8-.7 1.4.1c.5.7 2.3 3.6 2.8 4.5l-.2 6.4-3.8-2.2s-.6-.5-1.3.2c-.7.7-4.1 3.6-4.5 5.5 0 0-.1.4.6 0s3.9-2.9 3.9-2.9.7-.7 1.4 0c.5.5 2.8 2.4 3.7 3.2l-.2 7.7"/>
    <g>
    <path class="st1" d="M43.2 45.7c.1.1.2.2.4.3h.8l-.2-.7c-.3.1-.6.3-1 .4zM26.6 42.9c.1-.1.1-.1.2-.1 0-.1.1-.2.2-.3h-.1c-.2.1-.3.2-.3.4zM27.8 45.6s0 .1 0 0c0 .1 0 .1 0 0 0 .1 0 .1 0 0zM36.9 12.7h-.1c-.1 0-.2.1-.3.1.1-.1.2-.2.4-.1zM31.6 44.2c.2.1.3.2.4.3.1.1.1.2.1.2.3.2.5.4.6.7.1.1.2.2.3.4.1 0 .2.1.3.2h1.1c-.5-.8-.9-1.5-1.2-2h-1.7c.1.1.1.1.1.2zM31.7 45.2zM40.6 41.8v-.2h-.1c0 .1 0 .1.1.2-.1 0 0 0 0 0 0 .1 0 .1 0 0zM36.9 12.7s.1 0 0 0c0 0 0-.1 0 0zM34.7 47.7c.1 0 .1 0 0 0 .2.1.3.2.4.2V47c0-.1-.1-.1-.1-.2v.8h-.3zM42.5 49.8s-.3-.2-.4 0c-.1.1-.2.1-.3.2h1c-.2-.1-.3-.2-.3-.2zM38.3 28.2l.8-.8.2-.2h-1v1zM35.4 22.9v-.1zM35.3 38c-.5-.7-1-1.6-1.5-2.2h-2.4c-1.2 1-2.7 2.2-3.1 2.5h-.1 7.1V38zM38.7 55.5l.1-.1h-.1zM46.1 40.3zM34.7 17l-.1-.1s0 .1.1.1zM35.3 40.5v-.6h-.7zM38.8 16.4s0-.1 0 0c-.1 0-.1 0 0 0-.1 0 0 0 0 0zM29.4 51.5c.1-.1.2-.1.2-.2.2-.2.4-.3.5-.5-.2-.1-.3-.1-.4-.2l-.3.9zM43.3 37.7l.3-.3c-.5-.2-1.2-.3-1.9-.5-.2 0-.3 0-.4.2-.1.2-.2.3-.4.5-.1.1-.2.3-.3.6h2.1c.1-.2.4-.3.6-.5zM47.2 37.5c-.1-.2-.2-.3-.3-.4.1.1.1.2.2.3l.1.1zM38.4 34l.7.1.5-.6c.4-.4 1.3-1 2.7-.2.2.1.5.3.8.4.1 0 .2.1.2.1-.9-.7-2.3-1.8-2.9-2.3h-.3c-.4.6-1.1 1.6-1.7 2.5zM38.7 42.4h.4l.6-.3c0-.3.2-.5.4-.7.1-.4.3-.7.6-.8.1-.2.2-.3.3-.4 0-.1.1-.1.1-.2h-1.3c-.4.7-.8 1.5-1.1 2.4z"/>
        <path class="st2" d="M33.2 8c.2.1.3.1.5.2.3.2.8.1.9-.2.1-.1.1-.2.1-.3h-2.6c.4.2.8.2 1.1.3zM26.3 34.1s.1 0 .1.1c0 0 .1.1.1.3-.3-.1-.5 0-.5.3-.1.2-.2.6-.1.8v.1h.7c.3-.5.7-1.1 1.1-1.7h-1.4zM10.3 29.9c.7.7 1.5.9 2.4.6.4-.1.9-.3 1.3-.4.6-.1 1.2-.3 1.8 0 .1.1.3.1.5.2h.3l.6-.3-6.9-.1c-.1 0 0 0 0 0zM31.4 30.4c.2-.3.4-.4.6-.6h-9.3c0 .1.1.2.1.3.2.5.7.7 1.1.5.3-.2.6-.1.9-.1.2 0 .3 0 .3-.2l.1-.1.1.1c0 .3.4.4.6.6.1.1.3.1.4.1 0 .1 0 .2.1.3l.1.1h3.8l.2-.2c.4-.2.8-.6.9-.8zM35.4 31.3v-1.5h-1.6c.2.1.3.2.3.3l1.3 1.2zM11.4 25.6h-5c.3.3.4.7.4 1.1 0 .1 0 .1.1.2s.2.2.3.4h4.2v-1.7zM28.5 25.6H13.8v1.7h14c.1-.4.3-.7.6-1.1v-.6zM18.4 21.2H3.9c0 .1.1.1.1.2.2.2.3.5.4.8v.1c-.2.2-.2.4-.2.6h14.3v-1.7zM32.1 22.4c.4-.6.9-.7 1.3-.7.5 0 .9.2 1.2.4l.8.7h.1v-1.7H20.9v1.7h10.8l.4-.4zM4.9 19h6.4v-1.7H5.2v.9c0 .4-.1.6-.3.8zM13.8 17.4h14.6v1.7H13.8zM18.4 13.6H5.8c-.2.2-.4.5-.5.7-.2.3-.4.6-.5 1h13.6v-1.7zM34.8 14.5c0-.3.1-.5.3-.7 0-.1 0-.2.1-.2H20.9v1.7h13.4c.1-.3.3-.6.5-.8zM11.4 9.8H8.9s-.1.1-.1.2c-.3.4-.6.7-1 .9-.2.1-.4.3-.5.6h4.2V9.8zM13.8 9.8h14.6v1.7H13.8zM32.5 38.7c.7 0 1.2.4 1.3.5l.9.8h.6v-1.7h-7.1s-.1 0-.1.1c.2.2.4.4.3.8 0 .1.1.2.1.2.2 0 .2.1.2.3v.3h1.9c.1-.2.3-.3.4-.5.6-.7 1.1-.8 1.5-.8zM33.6 46.3c.1.1.2.3.2.5.2.2.3.5.4.7l.6.3h.2V47c-.2-.3-.3-.6-.5-.9h-1.1c.1 0 .1.1.2.2zM33.3 47.2v-.1h-.1l.1.1zM11.8 7.7h6.6V6.1h-6c-.4.3-.5.7-.6 1.1v.1c0 .2.1.3 0 .4zM35.5 6.3l-.6.3c-.2.1-.3.4-.2.6.1.2.1.3 0 .4h.7V6.3z"/>
        <path class="st2" d="M20.9 7.7h11.3c-.4-.2-.9-.4-1-.9l-.1-.1c-.7-.2-1.4-.6-2.3-.6h-.3-7.6v1.6zM17.9 3.8c-.1-.1-.3-.2-.4-.2h-.7c-.4 0-.6-.2-.8-.4-.1-.2-.2-.2-.4-.1-.1.1-.2.1-.3.2-.1.2-.2.4-.4.6h3.2s-.2 0-.2-.1zM27.8 3.6c-.2-.3-.2-.4 0-.6.1-.1.2-.2.2-.3-.1 0-.2 0-.4.1h-.1l-.1-.1c-.1-.2-.2-.3-.4-.3s-.4 0-.6.1c-.2.1-.3.1-.5.1-.2-.1-.5-.2-.8 0h-.2c-.2-.1-.5-.1-.7 0-.2 0-.5.1-.7.1-.5 0-1 0-1.5.1-.2 0-.5.1-.7.1h-.6c-.2 0-.5.1-.7.3-.1.1-.2.2-.4.2-.3 0-.6 0-.8.3-.1.2-.3.2-.5.2H28c-.1 0-.1-.1-.2-.3zM32.9 34.5c-.2.1-.8.7-1.5 1.3h2.4c-.4-.6-.7-1.1-.9-1.3zM38.4 34.9l.6-.8h-.6zM44.7 34.7c.3.2.6.5.9.8v-1.1l-.2.2c-.2 0-.4.1-.7.1zM55.6 34.1h-7.5v1.7H54c.4-.4.8-.9 1.2-1.3l.4-.4zM40.1 31.5h.3c-.1-.1-.1-.1-.2-.1 0 0 0 .1-.1.1zM52.7 31.5v-1.7h-9.1c.5.6 1 1.1 1.4 1.7h7.7zM58.3 31.4c.5-.4 1-.9 1.3-1.5v-.1h-4.5v1.7l3.2-.1c0 .1 0 .1 0 0zM39.3 27.3c.2-.2.6-.3 1-.3.2 0 .5.1.8.3h4.5v-1.7h-7.4v1.7h1.1zM31.9 27.3h2.5c-.4-.5-.7-1-.9-1.3-.3.2-.9.7-1.6 1.3zM48.1 25.6v1.7h12.7c.2-.4.3-.7.5-1 .2-.2.2-.4.2-.6H48.1zM52.3 21.2c.1.1.2.1.3.2v-.2h-.3c-.1 0-.1 0 0 0z"/>
        <path class="st2" d="M52.7 22.8v-1.5c-.1-.1-.2-.1-.3-.2v.1s0-.1-.1-.1h-14v1.7h14.4zM34.2 17.8c-.1-.1-.2-.2-.2-.4h-3V19h3.5c-.2-.3-.3-.6-.3-.9v-.3zM39 18.1c0 .1.1.3.1.4 0 .2 0 .3-.1.5h6.6v-1.7h-6.5v.1c.1.3 0 .5-.1.7zM48.1 19h2.8c-.1-.2-.2-.4-.3-.5-.2-.2-.5-.3-.8-.5-.2-.1-.3-.3-.3-.5v-.1h-1.3V19zM39.4 15.1v.1h9.5c0-.1-.1-.2-.1-.2-.4-.4-.9-.6-1-1.2v-.2h-9.1v.2c.4.3.7.7.7 1.3zM45.6 10.1v-.3h-.2c.1.1.2.2.2.3z"/>
        <path class="st2" d="M31 11.4h14.6v-1.3c0-.1-.1-.2-.2-.3H31v1.6zM47.6 38.4c0 .3-.1.5-.3.8 0 .3-.1.5-.3.7h4.5c-.1-.1-.1-.3 0-.5l.6-1.2h-4.5v.2zM42.1 39.9zM39.8 39.9h1.3s0-.1.1-.1c.1-.2.3-.3.4-.4.1-.2.3-.5.6-.6 0-.1.1-.1.1-.2l.3-.3s0-.1.1-.1h-2.1c-.2.5-.5 1.1-.8 1.7zM43.2 38.8zM38.5 42.8c.2-.1.3-.3.5-.4 0 0 .1 0 .1-.1h-.4c-.1.2-.1.4-.2.5zM32.5 43c-.1 0-.5.4-1.1.9l.1.1h1.7c-.2-.5-.5-.8-.7-1 .1 0 .1 0 0 0zM52.3 43.1c-.1-.2-.2-.5-.3-.7h-3.9V44h4.7c0-.2-.1-.3-.2-.4-.2-.2-.2-.3-.3-.5zM44.2 46.5c.2.1.3.3.5.4v-.1l-.2-.7h-.8c.1.1.3.2.5.4zM46.9 47l-.1.2c-.1.3-.3.4-.6.6h5.9v-1.7H47c0 .3 0 .6-.1.9zM60.4 46.5c0-.2 0-.3-.1-.5h-.7v.2c-.1.3-.2.6-.6.6l-.1.1v.3c-.2.1-.2.1-.3.3v.1h2.1c0-.2 0-.4-.1-.6-.3 0-.2-.3-.2-.5zM45.2 7.3c-.4 0-.7.1-1.1-.1-.1-.1-.3-.1-.4-.2-.3-.1-.6.2-.9.1h-.1c-.1.3-.4.3-.7.5-.2.1-.3.1-.5 0-.9-.2-1.7-.5-2.6-.4-.1 0-.1 0-.2-.1-.2-.3-.4-.4-.7-.4v.9h8c-.2-.3-.2-.3-.8-.3zM31.6 54.6c-.2.1-.5.4-1 .8h1.8l-.8-.8zM41.7 58.9c0 .1-.1.1-.2.2h.4l-.2-.2zM34.9 57.5H31c.1.3.2.6.5.8.3.2.5.5.7.8h2.7v-1.6zM38.8 55.4l1.1-1c.1-.1.6-.5 1.3-.5.4 0 .9.2 1.4.8l.7.7h4.2c0-.1-.1-.3-.1-.4 0-.3.1-.7.1-1 0-.1-.1-.2-.1-.3h-8.9v1.7h.3zM55.2 55.4h2.3c.3-.6.5-1.1.8-1.7h-3.2v1.7zM41.8 49.9c-.5.4-1.2 1-1.9 1.7h5.4c-1-.6-2-1.3-2.5-1.7h-1zM49.1 50.3c.1-.1.1-.2.3-.3 0 0 .1 0 .1-.1h-1.3c.2.3.4.5.6.8.1-.1.2-.3.3-.4zM55.1 50.1c.1.5.1.9.2 1.4v.1h4c0-.1.1-.2.1-.3.1-.4.1-.9.4-1.3h-4.6c-.1 0-.1.1-.1.1zM33.4 61.6c.1.3.2.6.2.9-.3.1-.4.3-.2.6 0 .1.1.1.1.2h1.4v-1.7h-1.5zM38.8 63.2h1.5c.5-.5 1.1-1 1.6-1.5l.2-.2h-2.8c-.2.2-.3.4-.5.5v1.2z"/>
  </g>
    <g>
    <path class="st0" d="M71.3 59.9l5.3-13.7h2.9l5.3 13.7H82l-1.4-3.7h-5.7l-1.4 3.7h-2.2zm4.2-5.5h4.3l-2.1-5.5-2.2 5.5zM99.7 59.6c-1.7.4-3.2.7-4.5.7-2.4 0-4.2-.6-5.5-1.9-1.3-1.2-1.9-3-1.9-5.4 0-2.3.6-4.1 1.9-5.3s3.1-1.9 5.4-1.9c1.5 0 3 .2 4.5.5v2.2c-1.7-.6-3.1-.9-4.2-.9-1.5 0-2.6.5-3.4 1.4-.8.9-1.2 2.2-1.2 3.9 0 1.6.4 2.9 1.3 3.9.8.9 2 1.4 3.5 1.4.3 0 .7 0 1.2-.1v-4.5h2.9v6zM104.8 59.9V46.2h5.1c2.8 0 4.2 1.1 4.2 3.4 0 .8-.2 1.6-.7 2.3s-1.1 1.2-2 1.6l4.5 6.4h-3.5l-3.4-5.6h-1.6v5.6h-2.6zm2.7-7.5h.7c2.1 0 3.1-.8 3.1-2.5 0-1.2-.9-1.8-2.8-1.8h-1v4.3zM119.8 59.9V46.2h2.9v13.7h-2.9zM139.1 59.3c-1.3.6-2.9.9-4.8.9-2.3 0-4-.6-5.3-1.9-1.3-1.3-1.9-3-1.9-5.3s.6-4.1 1.9-5.3c1.3-1.2 3.1-1.9 5.4-1.9 1.5 0 3 .2 4.5.5v2.2c-1.7-.6-3.1-.9-4.2-.9-1.4 0-2.6.5-3.4 1.4-.8.9-1.2 2.2-1.2 3.9 0 1.7.4 3 1.3 3.9.8.9 2 1.4 3.5 1.4 1.3 0 2.7-.3 4.1-1v2.1zM142 59.9l5.3-13.7h2.9l5.3 13.7h-2.9l-1.4-3.7h-5.7l-1.4 3.7H142zm4.2-5.5h4.3l-2.1-5.5-2.2 5.5z"/>
  </g>
</svg>
