<svg xmlns="http://www.w3.org/2000/svg" fill="currentColor" viewBox="0 0 20 20" class="x1lliihq x1k90msu x2h7rmj x1qfuztq x198g3q0 x1qx5ct2 xw4jnvo"><g fill-rule="evenodd" transform="translate(-446 -398)"><path fill-rule="nonzero" d="M457.507 411v5.55c0 .525.426.95.95.95h3.5a1.55 1.55 0 0 0 1.55-1.55v-7.507h1.271c.994 0 1.672-1.186.918-1.947l-8.772-8.14a1.361 1.361 0 0 0-1.823-.01l-8.714 8.122c-.784.699-.29 2.032.782 2.032h1.338v7.45c0 .856.695 1.55 1.55 1.55h3.5a.95.95 0 0 0 .95-.95V411h3zm-1.5-11.448 7.966 7.39h-1.216a.75.75 0 0 0-.75.75v8.258a.05.05 0 0 1-.05.05h-2.95v-5.35a1.15 1.15 0 0 0-1.15-1.15h-3.7a1.15 1.15 0 0 0-1.15 1.15V416h-2.95a.05.05 0 0 1-.05-.05v-8.2a.75.75 0 0 0-.75-.75h-1.24l7.99-7.448z"/></g></svg>